# xmcd
# 
# Track frame offsets:
#     150
#     17945
#     37185
#     58235
#     78050
#     98850
#     112945
#     128520
#     149590
#     167640
#     178795
#     198100
#     217990
#     236165
#     253635
#     274225
# 
# Disc length: 3891
# 
# Revision: 0
# Processed by: cddbd v1.5.2PL0 Copyright (c) Steve Scherf et al.
# Submitted via: fre:ac v1.0.27
# 
DISCID=e30f3110
DTITLE=Various Artist - 俺たちのフォーク！カバー篇
DYEAR=2013
DGENRE=Folk
TTITLE0=夏川　りみ - なごり雪
TTITLE1=岩崎　宏美 - 卒業写真
TTITLE2=槇原　敬之 - 秋の気配
TTITLE3=中森　明菜 - 恋
TTITLE4=徳永　英明 - 翼をください
TTITLE5=荻野目　洋子 - 神田川
TTITLE6=GOING UNDER GROUND - 初恋
TTITLE7=庄野　真代 - わかれうた
TTITLE8=岡平　健治 - 22才の別れ
TTITLE9=南　沙織 - 結婚しようよ
TTITLE10=高田　みづえ - 秋止符
TTITLE11=チェリッシュ - あなた
TTITLE12=吉田　栄作 - 心の旅（ver.2009）
TTITLE13=八代　亜紀 - 悪女
TTITLE14=麻丘　めぐみ - 「いちご白書」をもう一度
TTITLE15=つんく♂ - 青春の影
EXTD=
EXTT0=
EXTT1=
EXTT2=
EXTT3=
EXTT4=
EXTT5=
EXTT6=
EXTT7=
EXTT8=
EXTT9=
EXTT10=
EXTT11=
EXTT12=
EXTT13=
EXTT14=
EXTT15=
PLAYORDER=
